<svg xmlns="http://www.w3.org/2000/svg" xmlns:xlink="http://www.w3.org/1999/xlink" width="24" height="28" viewBox="0 0 24 28"><defs><path id="snp3a" d="M1301.88 2294.66c-.5 0-.88-.42-.88-.97 0-.53.39-.96.88-.96h3.05c2.54 0 4.33-3.75 4.33-6.17 0-.37-.04-.75-.11-1.05a3.1 3.1 0 0 1 .16-2.05l.03-.04c.22-.46.55-.82.95-1.06.4-.24.86-.37 1.34-.35.64 0 1.3.29 1.86.88 1.35 1.4 1.1 3.62.86 5.56-.06.5-.11.97-.12 1.39-.08 1.4.23 1.72 1.5 1.72h2.63c2.1 0 3.13 2.63 1.95 4.32l-.03.04.03.04.03.04a2.89 2.89 0 0 1-.45 3.7c.63 1.33.12 3.03-1.18 3.68.55 1.67-.6 3.59-2.32 3.59l-5.7-.01h-.03a10.52 10.52 0 0 1-3.06-.48c-.77-.26-1.3-.48-1.75-.68a7.97 7.97 0 0 0-3.97-.76c-.5 0-.88-.44-.88-.98 0-.53.39-.96.88-.96 2.54 0 3.37.37 4.62.9.47.2.98.43 1.62.64.39.14.8.23 1.22.3.44.05.9.08 1.35.09H1316.4c.74 0 .97-1.13.29-1.45a.96.96 0 0 1-.6-.92c0-.52.4-.97.88-.97h.74c.74 0 .96-1.12.29-1.45a.97.97 0 0 1-.6-.93c0-.53.4-.96.88-.96h.09c.8 0 .96-1.25.2-1.5h-.02a.9.9 0 0 1-.63-.69c-.12-.5.15-1.04.63-1.18.78-.2.63-1.5-.18-1.5h-2.63c-2.27 0-3.39-1.22-3.27-3.74.02-.47.09-.98.15-1.52.17-1.5.37-3.2-.33-3.93a1.07 1.07 0 0 0-.7-.36c-.16 0-.3.03-.43.12-.1.06-.2.15-.25.26l-.01.02c-.08.17-.1.4-.04.69.12.5.18 1.01.18 1.54 0 3.5-2.55 8.1-6.1 8.1h-3.05z"/></defs><g><g transform="translate(-1299 -2280)"><use fill="#e88d0c" xlink:href="#snp3a"/></g></g></svg>