<svg xmlns="http://www.w3.org/2000/svg" xmlns:xlink="http://www.w3.org/1999/xlink" width="20" height="28" viewBox="0 0 20 28"><defs><path id="nok7a" d="M1009.45 2819.25c0-.32.25-.6.55-.6h2.08l2.51-5.6a3.86 3.86 0 0 1-.48-.45h-.01a4.8 4.8 0 0 1 0-6.38l.06-.04a3.96 3.96 0 0 1 2-1.17v-2c0-.54.39-.97.89-.97s.9.43.9.97v2c.79.18 1.49.61 2.04 1.21a4.69 4.69 0 0 1 1.22 3.19 4.7 4.7 0 0 1-1.22 3.2l-.05.04c-.13.14-.27.27-.42.4l2.5 5.6h2.08c.3 0 .54.28.54.6 0 .32-.24.59-.54.59h-1.57l1.88 4.2c.12.27.1.6 0 .86l.2.47.39.87c.13.3.02.65-.25.8a.53.53 0 0 1-.72-.3l-.4-.86-.2-.47a.94.94 0 0 1-.65-.52l-2.24-5.05h-2.59v.75c0 .54-.4.98-.9.98s-.9-.44-.9-.98v-.75h-2.6l-2.24 5.05a.96.96 0 0 1-.63.52l-.21.47-.39.87a.54.54 0 0 1-.72.28c-.27-.14-.38-.48-.25-.79l.39-.87.2-.46a1.04 1.04 0 0 1-.01-.88l1.87-4.2H1010c-.3 0-.55-.26-.55-.58zm6.7-1.34c0-.53.4-.98.9-.98s.9.45.9.98v.74h2.07l-2.15-4.82c-.55.13-1.1.13-1.65 0l-2.15 4.82h2.08zm-.73-10.35l-.04.04a2.69 2.69 0 0 0 0 3.62c.68.73 1.72.95 2.6.54l.02-.01c.25-.12.48-.28.68-.49l.03-.04a2.7 2.7 0 0 0 0-3.61v-.01a2.23 2.23 0 0 0-3.29-.04z"/></defs><g><g transform="translate(-1007 -2801)"><use fill="#e88d0c" xlink:href="#nok7a"/></g></g></svg>