<svg xmlns="http://www.w3.org/2000/svg" xmlns:xlink="http://www.w3.org/1999/xlink" width="25" height="29" viewBox="0 0 25 29"><defs><path id="59zba" d="M1012.62 2344.82h-2.91v1.78h1.86c.3 0 .55.28.55.58 0 .33-.25.6-.55.6h-1.86v1.8h2.9c.32 0 .57.25.57.57 0 .32-.25.6-.56.6h-3.47c-.3 0-.56-.28-.56-.6v-5.9c0-.34.26-.6.56-.6h3.47c.3 0 .56.26.56.6 0 .31-.25.57-.56.57zm14.38-3.6v13.65c0 .23-.13.44-.33.53-3.38 2.02-5.96.92-8.64-.21a15.86 15.86 0 0 0-3.92-1.28 9.23 9.23 0 0 0-7.24 2.05v7.07c0 .53-.41.97-.93.97a.95.95 0 0 1-.92-.97v-20.75c0-.53.4-.97.92-.97.11 0 .2.02.29.05a11.06 11.06 0 0 1 3.36-1.84l.04-.01a10.5 10.5 0 0 1 4.63-.4c1.52.22 2.88.8 4.18 1.35 2.46 1.04 4.79 2.03 7.73.26a.53.53 0 0 1 .76.21c.05.08.07.19.07.3zm-1.1 13.3v-12.35c-3.02 1.44-5.4.43-7.87-.62a15.53 15.53 0 0 0-3.92-1.28 9.16 9.16 0 0 0-4.15.36l-.04.02a9.2 9.2 0 0 0-3.05 1.67v12.2a10.32 10.32 0 0 1 7.4-1.77c1.51.22 2.87.8 4.17 1.35 2.37 1.01 4.63 1.97 7.45.42zm-5.35-8.7h1.9c.74 0 1.34.64 1.34 1.41v4.29c0 .77-.6 1.4-1.34 1.4h-1.9a1.4 1.4 0 0 1-1.35-1.4v-4.29c0-.77.62-1.4 1.35-1.4zm2.08 1.25h-.02c-.04-.06-.09-.08-.16-.08h-1.9a.21.21 0 0 0-.17.08.27.27 0 0 0-.06.16v4.29c0 .06.03.11.06.16.06.04.1.07.17.07h1.9c.07 0 .12-.03.16-.07h.02c.04-.05.05-.1.05-.16v-4.29c0-.06-.01-.13-.05-.16zm-6.89-2.9c-.46 0-.83.4-.83.89v2.97c0 .48.37.89.83.89h.67c.47 0 .85-.41.85-.9 0-.31.25-.58.56-.58.3 0 .56.27.56.59 0 1.12-.9 2.05-1.97 2.05h-.67a2.02 2.02 0 0 1-1.96-2.05v-2.97c0-1.14.89-2.06 1.96-2.06h.67c1.08 0 1.97.92 1.97 2.06 0 .32-.26.57-.56.57a.57.57 0 0 1-.56-.57c0-.49-.38-.9-.85-.9z"/></defs><g><g transform="translate(-1004 -2337)"><use fill="#e88d0c" xlink:href="#59zba"/></g></g></svg>