<svg xmlns="http://www.w3.org/2000/svg" xmlns:xlink="http://www.w3.org/1999/xlink" width="27" height="21" viewBox="0 0 27 21"><defs><path id="24iia" d="M1022.96 2753.4a4.55 4.55 0 0 1 4.41 1.01c.8.73 1.3 1.76 1.3 2.9a3.9 3.9 0 0 1-1.2 2.78l1.06.97a4.38 4.38 0 0 1 1.4 3.15v1.22c0 .3-.1.65-.3.91-.22.28-.54.5-.95.53h-1.1v.35c0 .4-.36.73-.8.73h-18.54c-.45 0-.83-.31-.83-.73v-.35h-1.1c-.41-.04-.73-.25-.95-.53-.2-.26-.3-.6-.3-.9v-1.23c0-.6.12-1.17.36-1.7.44-1 1.3-1.68 2.1-2.42a3.9 3.9 0 0 1 .1-5.67 4.57 4.57 0 0 1 4.4-1.01c.42-2.5 2.75-4.34 5.48-4.34 2.71 0 5.05 1.85 5.46 4.34zm-2.97 13.06v-3.4c0-.24.2-.44.48-.44.27 0 .49.2.49.44v2h2.08a.35.35 0 0 0 .04-.2v-1.58c0-2.15-1.54-3.15-3.03-4.54a5.84 5.84 0 0 1-5.1 0c-1.5 1.4-3.04 2.4-3.04 4.54v1.58c0 .07.01.13.04.2h2.08v-2c0-.24.22-.44.5-.44.26 0 .47.2.47.44v3.4zm1.43-12.27c0-2-1.77-3.64-3.92-3.64-2.16 0-3.93 1.64-3.93 3.64 0 2.04 1.8 3.64 3.93 3.64 2.14 0 3.92-1.6 3.92-3.64zm-10.04 12.27a1.5 1.5 0 0 1-.72-.52c-.24-.3-.37-.7-.37-1.08v-1.58c0-.67.12-1.3.35-1.9a4.65 4.65 0 0 1-1.82-.4c-.66.63-1.55 1.27-1.92 2.1-.15.34-.23.72-.23 1.13v1.17h1.4v-1.33c0-.24.22-.45.49-.45.26 0 .48.2.48.45v2.4zm.19-11.63a2.9 2.9 0 0 0-2.81.64c-.5.47-.82 1.12-.82 1.83 0 .72.32 1.36.82 1.82.51.48 1.2.76 1.97.76.32 0 .6-.03.9-.13.6-.68 1.33-1.28 2-1.89a5.2 5.2 0 0 1-1.6-2.85 2.89 2.89 0 0 0-.46-.18zm14.39 9.22c0-.24.2-.45.47-.45.27 0 .5.2.5.45v1.33h1.4v-1.17a2.76 2.76 0 0 0-.95-2.1l-1.22-1.13a4.6 4.6 0 0 1-1.8.4c.23.6.34 1.23.34 1.9v1.58c0 .38-.12.77-.36 1.08-.19.23-.43.42-.73.52h2.35zm-4.6-6.19c.67.61 1.41 1.21 2 1.9.1.02.26.08.34.08.18.03.36.04.57.04.75 0 1.46-.28 1.96-.76a2.43 2.43 0 0 0 0-3.65 2.9 2.9 0 0 0-2.81-.64 2.6 2.6 0 0 0-.46.18 4.89 4.89 0 0 1-1.6 2.85z"/></defs><g><g transform="translate(-1004 -2748)"><use fill="#e88d0c" xlink:href="#24iia"/></g></g></svg>