<svg xmlns="http://www.w3.org/2000/svg" xmlns:xlink="http://www.w3.org/1999/xlink" width="29" height="25" viewBox="0 0 29 25"><defs><path id="nqz3a" d="M1025.37 2239.23c.54 0 .97.4.97.89v8.87c0 .5-.43.92-.97.92h-15.92c-.53 0-.97-.42-.97-.92v-8.87c0-.49.44-.89.97-.89s.96.4.96.89v7.97h3.12v-8.94c0-.3.26-.54.57-.54h6.62c.33 0 .58.24.58.54v8.94h3.1v-7.97c0-.49.45-.89.97-.89zm-5.23 8.86v-8.4h-5.46v8.4zm-15-7.7a.85.85 0 0 1 0-1.29l11.59-10.88c.39-.35.98-.35 1.37 0h.02l11.56 10.88c.39.34.39.93 0 1.28-.37.34-.98.34-1.35 0l-10.91-10.24-10.92 10.24c-.37.34-1 .34-1.36 0z"/></defs><g><g transform="translate(-1003 -2226)"><use fill="#e88d0c" xlink:href="#nqz3a"/></g></g></svg>