<svg xmlns="http://www.w3.org/2000/svg" xmlns:xlink="http://www.w3.org/1999/xlink" width="23" height="24" viewBox="0 0 23 24"><defs><path id="90wma" d="M547.95 2420a10 10 0 1 1 .1-20 10 10 0 0 1-.1 20zm.05-16.18c.6 0 1.1.49 1.1 1.12a1.1 1.1 0 0 1-2.22 0c0-.63.5-1.12 1.12-1.12zm-1.12 4.23a1.11 1.11 0 1 1 2.23 0v7a1.11 1.11 0 0 1-2.22 0zm-6.67 1.93a7.75 7.75 0 0 0 7.75 7.78 7.74 7.74 0 0 0 7.82-7.78 7.77 7.77 0 0 0-15.56 0z"/></defs><g><g transform="translate(-536 -2398)"><use fill="#fff" xlink:href="#90wma"/></g></g></svg>