<svg xmlns="http://www.w3.org/2000/svg" xmlns:xlink="http://www.w3.org/1999/xlink" width="29" height="29" viewBox="0 0 29 29"><defs><path id="77ioa" d="M1026.72 3366.65a.9.9 0 0 1 0 1.28l-5.76 5.79a.88.88 0 0 1-1.27 0l-.02-.03-5.08-5.1-5.1 5.13a.9.9 0 0 1-.67.26h-5.9a.92.92 0 0 1-.9-.93v-5.93c0-.26.1-.48.27-.65l5.09-5.13-5.09-5.13a.9.9 0 0 1 0-1.29l5.73-5.78a.9.9 0 0 1 1.29 0l5.1 5.13 4.67-4.68c1-.96 2.62-.93 3.6.06 1.1 1.1 3.55 3.04 4.1 4.4.35.99.21 2.06-.56 2.83l-4.6 4.64zm-6.39-15.74l-1.64 1.64 1.01 1.03.01.01.02.02h.02l.01.02h.01l2.48 2.5.03.05.01.01.01.01 1.03 1.01 1.61-1.62a.8.8 0 0 0 0-1.09c-1.17-1.2-2.36-2.38-3.55-3.57a.77.77 0 0 0-1.06-.02zm.79 5.64c-.59-.6-1.17-1.19-1.77-1.77l-13.95 14.03 1.75 1.78 13.97-14.04zm-16.91-.98l4.46 4.48 4.46-4.48-.76-.77-.82.8a.53.53 0 0 1-.76 0 .53.53 0 0 1 0-.78l.8-.8-1.3-1.3-1.58 1.6c-.2.22-.54.22-.77 0a.56.56 0 0 1 0-.76l1.59-1.6-.86-.88zm13.7-2.24l-13.96 14.05.67.66 13.96-14.04zm-14.07 18.82h3.33l-3.33-3.36zm4.74-.1l13.98-14.06-.67-.67-13.97 14.04zm11.75-.27l4.45-4.49-.77-.78-1.58 1.6a.53.53 0 0 1-.78 0 .54.54 0 0 1 0-.78l1.59-1.6-1.29-1.28-.8.8c-.21.2-.56.2-.76 0a.53.53 0 0 1 0-.78l.8-.8-.86-.86-4.46 4.49z"/></defs><g><g transform="translate(-1000 -3347)"><use fill="#e88d0c" xlink:href="#77ioa"/></g></g></svg>