<svg xmlns="http://www.w3.org/2000/svg" xmlns:xlink="http://www.w3.org/1999/xlink" width="22" height="27" viewBox="0 0 22 27"><defs><path id="rztwa" d="M1311.19 2235.4a.71.71 0 0 0-.49.2l-.02.04a.77.77 0 0 0-.22.55v5.6c0 .22.08.41.21.56v.01c.14.14.32.22.52.22h7.27c.21 0 .4-.08.52-.23a.8.8 0 0 0 .22-.55v-5.6a.77.77 0 0 0-.22-.56.65.65 0 0 0-.52-.24zm1.41 9.83l.02.05c.01.02.03.02.05.02h4.31c.02 0 .05 0 .06-.03.01 0 .03-.02.03-.04v-1.5h-4.47zm4.3-17.2c0-.52.39-.95.87-.95.49 0 .88.43.88.95v5.47c.62.05 1.16.34 1.57.77.45.5.74 1.18.74 1.92v5.6c0 .75-.29 1.42-.74 1.9-.37.42-.87.7-1.4.78v.76a2.1 2.1 0 0 1-.54 1.4c-.33.36-.78.58-1.3.58h-1.35a5.85 5.85 0 0 1-1.44 3.03v.02a5.04 5.04 0 0 1-3.66 1.65 5.01 5.01 0 0 1-3.66-1.65 5.94 5.94 0 0 1-1.53-4v-10.8c0-1.04-.38-1.97-1-2.66l-.03-.04a3.27 3.27 0 0 0-2.39-1.05c-.48 0-.88-.44-.88-.95 0-.53.4-.97.88-.97 1.4 0 2.67.62 3.62 1.62l.05.04a5.94 5.94 0 0 1 1.5 4v10.8c0 1.02.4 1.97 1.02 2.64a3.3 3.3 0 0 0 2.42 1.1c.93 0 1.8-.42 2.41-1.1.43-.45.74-1.03.9-1.68h-1.17c-.5 0-.95-.22-1.28-.59h-.02a2.16 2.16 0 0 1-.52-1.4v-.75a2.3 2.3 0 0 1-1.4-.77 2.8 2.8 0 0 1-.74-1.9v-5.6c0-.75.28-1.44.73-1.93l.06-.05c.41-.4.92-.67 1.5-.72v-5.47c0-.52.4-.95.89-.95.47 0 .87.43.87.95v5.47h4.14zm-6.22 6.24a.83.83 0 0 0-1.18-.05z"/></defs><g><g transform="translate(-1300 -2226)"><use fill="#e88d0c" xlink:href="#rztwa"/></g></g></svg>