<svg xmlns="http://www.w3.org/2000/svg" xmlns:xlink="http://www.w3.org/1999/xlink" width="28" height="27" viewBox="0 0 28 27"><defs><path id="17o1a" d="M1023.23 6003.68a.58.58 0 0 1 0-.83l1.7-1.7h-19.72a.6.6 0 0 1-.6-.58v-19.53l-1.7 1.68a.6.6 0 0 1-.85 0 .6.6 0 0 1 0-.84l2.72-2.69c.12-.1.28-.18.43-.18.11 0 .22.02.29.09.07.02.1.06.16.1l2.7 2.68a.6.6 0 0 1 0 .84.58.58 0 0 1-.84 0l-1.71-1.68v18.93h19.13l-1.71-1.7a.58.58 0 0 1 0-.83c.22-.22.6-.22.83 0l2.73 2.7h.01c.1.12.17.26.17.43 0 .16-.08.33-.2.43h-.01l-2.7 2.68a.61.61 0 0 1-.83 0zm-5.72-16.16a.6.6 0 0 1-.6-.6c0-.03 0-.07.02-.1.09-.8.56-1.36 1.17-1.8a8.1 8.1 0 0 1 1.83-.84c.61-.2.96-.53 1.1-.91l.02-.04a1.39 1.39 0 0 0-.21-1.27l-.01-.04a1.48 1.48 0 0 0-1.73-.44l-.03.02c-.19.09-.36.2-.5.35-.13.16-.26.35-.34.55h-.01c-.08.21-.1.44-.1.67a.6.6 0 0 1-.61.6.6.6 0 0 1-.6-.6c0-.38.07-.75.21-1.08h-.01a2.68 2.68 0 0 1 1.48-1.56l.05-.03c.3-.13.66-.2 1.01-.2.91 0 1.65.4 2.12 1l.02.04a2.56 2.56 0 0 1 .38 2.4l-.02.04c-.26.69-.86 1.3-1.83 1.63-.53.18-1.11.4-1.54.7-.14.08-.27.2-.4.32h3.41c.33 0 .6.27.6.6a.6.6 0 0 1-.6.59zm-5.32 10.58c-.55 0-1-.44-1-.98a1 1 0 0 1 1-1h1.24v-8.63l-1.19 1.18a.98.98 0 0 1-1.39 0c-.4-.4-.4-1-.01-1.4l2.83-2.8a1 1 0 0 1 1.76.64v11.01h1.23a1 1 0 0 1 1 1c0 .54-.44.98-1 .98z"/></defs><g><g transform="translate(-1000 -5978)"><use fill="#e88d0c" xlink:href="#17o1a"/></g></g></svg>