<svg xmlns="http://www.w3.org/2000/svg" xmlns:xlink="http://www.w3.org/1999/xlink" width="23" height="28" viewBox="0 0 23 28"><defs><path id="u60wa" d="M1319.21 7993.26c.44 0 .8.4.8.9s-.36.9-.8.9h-16.34c-.43 0-.8-.4-.8-.9s.37-.9.8-.9h1.36v-13.47a4.38 4.38 0 0 1-1.94-1.28 5.3 5.3 0 0 1-1.28-3.5c0-1.35.5-2.59 1.28-3.48.8-.9 1.9-1.46 3.1-1.46h11.3c1.21 0 2.3.56 3.1 1.46l.05.05a5.25 5.25 0 0 1-.09 6.84v.01a4.78 4.78 0 0 1-1.9 1.3v13.53zm-2.96 0v-13.32a3.8 3.8 0 0 1-3.1-2h-4.22a4.53 4.53 0 0 1-1.34 1.35c-.54.36-1.13.57-1.75.65v13.32zm-1.07-15.52c.36.27.86.42 1.52.42.64 0 1.38-.4 1.94-1.03.49-.55.84-1.3.84-2.11 0-.85-.3-1.62-.78-2.19l-.04-.03c-.5-.57-1.2-.92-1.96-.92h-11.3c-.77 0-1.47.35-1.98.92-.5.57-.81 1.36-.81 2.22 0 .86.3 1.65.81 2.22a2.54 2.54 0 0 0 3.37.5 3 3 0 0 0 .98-1.09.8.8 0 0 1 .73-.52h5.09c.27 0 .54.16.69.46.25.48.53.88.9 1.15zm-4.14 3.22c.27 0 .48.24.48.54v9.52c0 .3-.21.53-.48.53-.26 0-.47-.23-.47-.53v-9.52c0-.3.21-.54.47-.54zm7.25-7.74c.4.46.66 1.1.66 1.8a2.7 2.7 0 0 1-.66 1.8c-.4.46-.98.75-1.6.75-.62 0-1.19-.29-1.6-.75-.4-.46-.66-1.1-.66-1.8 0-.54.15-1.05.42-1.47h-7.6c.25.42.4.93.4 1.47 0 .7-.25 1.34-.66 1.8-.4.46-.97.75-1.6.75-.62 0-1.18-.29-1.6-.75-.4-.46-.66-1.1-.66-1.8s.26-1.34.67-1.8c.4-.46.96-.75 1.58-.75h11.33c.61 0 1.17.3 1.58.75zm-11.98 2.84c.24-.26.38-.64.38-1.04s-.14-.77-.38-1.04a1.2 1.2 0 0 0-1.84 0c-.24.27-.38.64-.38 1.04s.14.78.38 1.04c.23.27.56.44.93.44.34 0 .68-.17.91-.44zm11.3 0c.24-.26.38-.64.38-1.04s-.14-.77-.38-1.04a1.2 1.2 0 0 0-1.83 0c-.25.27-.39.64-.39 1.04s.14.78.39 1.04c.22.27.55.44.92.44.35 0 .68-.17.91-.44zm-9.13 4.9c.27 0 .5.24.5.54v9.52c0 .3-.23.53-.5.53-.26 0-.47-.23-.47-.53v-9.52c0-.3.2-.54.47-.54zm5.12 0c.27 0 .48.24.48.54v9.52c0 .3-.2.53-.48.53-.26 0-.48-.23-.48-.53v-9.52c0-.3.22-.54.48-.54z"/></defs><g><g transform="translate(-1300 -7969)"><use fill="#e88d0c" xlink:href="#u60wa"/></g></g></svg>