<svg xmlns="http://www.w3.org/2000/svg" xmlns:xlink="http://www.w3.org/1999/xlink" width="29" height="29" viewBox="0 0 29 29"><defs><path id="4s4ga" d="M1015.45 5471.49c0 .54-.42.95-.95.95a.95.95 0 0 1-.97-.95.96.96 0 0 1 1.92 0zm4.54-2.86l6.33 1.94c.5.16.79.7.64 1.2a.97.97 0 0 1-.64.64l-6.33 1.94 2.11 3.96c.15.29.03.64-.23.78a.56.56 0 0 1-.55 0l-3.97-2.1-1.94 6.32c-.16.5-.7.8-1.2.64a.98.98 0 0 1-.62-.64l-1.96-6.32-3.96 2.1a.59.59 0 0 1-.79-.24.67.67 0 0 1 0-.54l2.1-3.96-6.31-1.94a.96.96 0 0 1-.63-1.2c.1-.32.35-.55.63-.64l6.32-1.94-2.1-3.96a.58.58 0 0 1 .24-.79c.18-.1.37-.07.54 0l3.96 2.1 1.96-6.31c.15-.5.68-.8 1.18-.63.32.1.55.34.64.63l1.94 6.31 3.97-2.1a.58.58 0 0 1 .78.79zm.21-2.84l-2.5 1.32.28.9.9.28zm-1.33 8.9l-.89.29-.28.9 2.5 1.3zm-7.58 1.18l-.27-.89-.9-.3-1.34 2.5zm-1.17-7.58l.9-.27.27-.91-2.5-1.32zm4.38-5.07l-1.8 5.84a1 1 0 0 1-.63.64l-5.85 1.79 5.85 1.78c.28.1.53.33.63.65l1.8 5.84 1.79-5.84a1 1 0 0 1 .63-.65l5.85-1.78-5.85-1.79a1 1 0 0 1-.63-.64z"/></defs><g><g transform="translate(-1000 -5457)"><use fill="#e88d0c" xlink:href="#4s4ga"/></g></g></svg>