<svg xmlns="http://www.w3.org/2000/svg" xmlns:xlink="http://www.w3.org/1999/xlink" width="27" height="28" viewBox="0 0 27 28"><defs><path id="y30fa" d="M1020.03 2303.03c-.7.5-1.38 1.16-2 1.98v2.67h6.34c.35 0 .63.26.63.61 0 .34-.28.62-.63.62h-14.84a.63.63 0 0 1-.64-.62c0-.35.28-.61.64-.61h6.34V2305a9.28 9.28 0 0 0-2-1.98 6.33 6.33 0 0 0-2.72-1.07 5.02 5.02 0 0 1-4.74-1.24l-.05-.03a4.61 4.61 0 0 1-1.41-3.3c0-.93.3-1.79.77-2.52.38-.58.89-1.08 1.49-1.46l-.17-.45a4.2 4.2 0 0 1 .93-3.87 4.43 4.43 0 0 1 2.36-1.37 2.98 2.98 0 0 1 2.32-1.52c.24-.84.73-1.56 1.38-2.11a4.56 4.56 0 0 1 6.73 1.03l.24-.01c.84 0 1.6.33 2.12.84l.05.04c.49.49.8 1.12.84 1.83a4.2 4.2 0 0 1 2.7 5.61 5 5 0 0 1 1.48 1.46l.02.04a4.58 4.58 0 0 1-.72 5.8 5.03 5.03 0 0 1-4.75 1.23c-.96.13-1.87.5-2.7 1.07zm-.76-.98a8.7 8.7 0 0 1 1.73-.91c-.2-.13-.37-.29-.53-.45-.37.35-.77.67-1.24.9h-.06c-.36.19-.74.32-1.15.4v1.11c.4-.4.82-.75 1.25-1.05zm-3.4 1.05v-1.1a4.88 4.88 0 0 1-2.45-1.3c-.15.15-.33.3-.51.44a8.81 8.81 0 0 1 2.96 1.96zm1.09-2.22c.58 0 1.15-.13 1.64-.38h.04a3.7 3.7 0 0 0 1.3-1.13l.16-.13c.3-.2.7-.13.9.13a3.55 3.55 0 0 0 3 1.51c1 0 1.92-.38 2.58-1.02a3.44 3.44 0 0 0 .55-4.27l-.04-.06c-.36-.55-.87-1-1.5-1.3l-.04-.02a.58.58 0 0 1-.23-.83c.13-.23.24-.48.32-.74a2.92 2.92 0 0 0-.6-2.7 3.18 3.18 0 0 0-1.83-1.06c-.32-.06-.55-.36-.5-.67.02-.06.02-.13.02-.22 0-.45-.18-.86-.47-1.13l-.03-.03a1.77 1.77 0 0 0-1.63-.45.64.64 0 0 1-.78-.33 3.17 3.17 0 0 0-2.86-1.77c-.81 0-1.53.29-2.08.74-.56.46-.95 1.1-1.05 1.84a.66.66 0 0 1-.69.56 1.71 1.71 0 0 0-1.76 1.03.64.64 0 0 1-.52.41c-.76.1-1.43.48-1.92 1.02a2.95 2.95 0 0 0-.35 3.45l.04.08a.6.6 0 0 1-.3.81c-.63.3-1.17.74-1.52 1.3a3.37 3.37 0 0 0 .47 4.3l.03.04a3.73 3.73 0 0 0 3.59.9h.01l.02-.02h.03a3.67 3.67 0 0 0 1.93-1.37.5.5 0 0 1 .17-.13c.28-.2.67-.13.9.13.32.48.77.86 1.3 1.13.5.24 1.07.38 1.7.38z"/></defs><g><g transform="translate(-1003 -2282)"><use fill="#e88d0c" xlink:href="#y30fa"/></g></g></svg>