<svg xmlns="http://www.w3.org/2000/svg" xmlns:xlink="http://www.w3.org/1999/xlink" width="29" height="28" viewBox="0 0 29 28"><defs><path id="i0y4a" d="M1320.34 3352.67l.06.05a12.52 12.52 0 0 1-.06 17.61l-.05.06a12.48 12.48 0 0 1-17.63-.06 12.44 12.44 0 0 1 0-17.66 12.47 12.47 0 0 1 17.68 0zm-3.38 7.88c.53 0 .96.42.96.95s-.43.96-.96.96h-5.46a.96.96 0 0 1-.97-.96v-8.61c0-.52.44-.96.97-.96s.96.44.96.96v7.66zm-5.46-9.62a10.55 10.55 0 0 0-7.48 18.05 10.55 10.55 0 0 0 14.93.03l.03-.03a10.57 10.57 0 0 0 .04-14.91l-.04-.04a10.56 10.56 0 0 0-7.48-3.1z"/></defs><g><g transform="translate(-1297 -3348)"><use fill="#e88d0c" xlink:href="#i0y4a"/></g></g></svg>