<svg xmlns="http://www.w3.org/2000/svg" xmlns:xlink="http://www.w3.org/1999/xlink" width="22" height="28" viewBox="0 0 22 28"><defs><path id="zd6ha" d="M1024.88 3314.92c-.46-.1-.74-.53-.63-.95l1.04-3.83v-8.01a.63.63 0 0 0-.4-.62c-.1-.04-.23-.06-.35-.06a1 1 0 0 0-.34.06.62.62 0 0 0-.41.59v.9c0 .44-.4.8-.87.8s-.86-.36-.86-.8v-2.06c0-.33-.18-.54-.4-.62h-.01a.96.96 0 0 0-.34-.05.99.99 0 0 0-.35.05.61.61 0 0 0-.4.59v2.1c0 .43-.4.78-.87.78-.48 0-.86-.35-.86-.78v-2.38a.63.63 0 0 0-.41-.63 1.11 1.11 0 0 0-.7 0 .62.62 0 0 0-.4.6v2.4c0 .44-.39.8-.86.8-.48 0-.87-.36-.87-.8v-7.62c0-.33-.18-.54-.4-.62a.99.99 0 0 0-.35-.06.98.98 0 0 0-.34.06c-.23.08-.42.29-.42.62v12.6c0 .44-.38.79-.85.79-.48 0-.87-.35-.87-.79v-3.46a.62.62 0 0 0-.41-.59.99.99 0 0 0-.34-.05c-.12 0-.25.01-.35.05a.63.63 0 0 0-.4.62v3.95c0 1.54.06 1.62.94 2.65l.24.3 1.87 2.23c.3.34.23.84-.14 1.1a.92.92 0 0 1-1.21-.14l-1.88-2.23-.24-.3c-1.22-1.44-1.31-1.54-1.31-3.61v-3.95c0-1.07.66-1.77 1.5-2.08a2.92 2.92 0 0 1 1.73-.07v-7.02c0-1.08.66-1.77 1.5-2.08a2.86 2.86 0 0 1 1.96 0c.84.31 1.5 1 1.5 2.08v3.1a2.8 2.8 0 0 1 2.58.58 2.84 2.84 0 0 1 2.39-.2c.57.2 1.06.6 1.31 1.17a2.83 2.83 0 0 1 1.92.02c.84.3 1.5 1 1.5 2.08v8.1l-.03.18-1.07 3.94c-.11.42-.58.68-1.04.57zm-14.54-17.4c-.45.14-.93-.09-1.08-.5a5.08 5.08 0 0 1-.28-1.65c0-2.93 2.65-5.36 5.86-5.36 3.21 0 5.86 2.43 5.86 5.36 0 .56-.1 1.12-.28 1.65-.15.41-.63.64-1.08.5-.45-.13-.7-.57-.56-.98.13-.38.2-.76.2-1.17 0-2.07-1.87-3.78-4.14-3.78-2.27 0-4.13 1.7-4.13 3.78 0 .4.06.8.19 1.17.14.41-.11.85-.56.99z"/></defs><g><g transform="translate(-1007 -3289)"><use fill="#e88d0c" xlink:href="#zd6ha"/></g></g></svg>